<svg width="282" height="143" viewBox="0 0 282 143" fill="none" xmlns="http://www.w3.org/2000/svg">
<g clip-path="url(#clip0_101_5)">
<path d="M0 0L18.56 18.56V90.05L0 108.79V0ZM52.05 18.74H105.49V1.04H34.87L52.05 18.74ZM34.87 62.64H105.49V45.98H34.87V62.64ZM32.61 108.79H106.53V89.88H52.05L32.62 108.79H32.61ZM139.53 18.74H192.97V1.04H122.35L139.53 18.74ZM122.35 62.64H192.97V45.98H122.35V62.64ZM120.09 108.79H194V89.88H139.52L120.09 108.79ZM226.84 18.74H280.28V1.04H209.66L226.84 18.74ZM209.66 62.64H280.28V45.98H209.66V62.64ZM207.4 108.79H281.31V89.88H226.83L207.4 108.79ZM68.78 141.76L72.04 138.47V125.93L68.78 122.67V141.75V141.76ZM87.28 122.68L84.02 125.97V138.51L87.28 141.77V122.69V122.68ZM85.29 142.62L82.78 140.13H73.2L70.71 142.62H85.29ZM192.96 122.35L189.76 125.58V137.9L192.96 141.1V122.36V122.35ZM174.79 141.09L177.99 137.86V125.54L174.79 122.34V141.08V141.09ZM190.71 142.31L188.24 139.87H178.83L176.39 142.31H190.71ZM185.31 138.07V129.69H182.44V138.07H185.31ZM171.86 123.36L168.65 126.6V138.98L171.86 142.19V123.36ZM153.6 142.19L156.81 138.95V126.57L153.6 123.36V142.19ZM155.56 122.13L158.04 124.59H167.5L169.96 122.13H155.57H155.56ZM158.35 134.22H167.1V131.34H158.35V134.22ZM106.73 142.51L104.22 140.02H94.64L92.15 142.51H106.73ZM90.22 141.88L93.48 138.62V126.08L90.22 122.79V141.87V141.88ZM108.72 122.8L105.46 126.06V138.6L108.72 141.89V122.81V122.8ZM92.15 121.94L94.64 124.43H104.22L106.73 121.94H92.15ZM121.98 142.51V126.53H118.89V142.51H121.98ZM111.3 121.94L114.42 124.67H126.42L129.57 121.94H111.31H111.3ZM132.56 121.94L135.69 124.59H147.76L150.92 121.94H132.55H132.56ZM143.3 142.51V126.39H140.19V142.51H143.3ZM214.5 123.42L211.29 126.66V139.04L214.5 142.25V123.42ZM196.24 142.25L199.45 139.01V126.63L196.24 123.42V142.25ZM198.2 122.19L200.68 124.65H210.14L212.6 122.19H198.21H198.2ZM200.99 134.28H209.74V131.4H200.99V134.28Z" fill="url(#paint0_linear_101_5)"/>
</g>
<defs>
<linearGradient id="paint0_linear_101_5" x1="0" y1="71.31" x2="281.32" y2="71.31" gradientUnits="userSpaceOnUse">
<stop stop-color="white"/>
<stop offset="1" stop-color="white"/>
</linearGradient>
<clipPath id="clip0_101_5">
<rect width="281.32" height="142.62" fill="white"/>
</clipPath>
</defs>
</svg>
